<svg xmlns="http://www.w3.org/2000/svg" width="1600" height="900" viewBox="0 0 1600 900" role="img" aria-labelledby="title desc">
  <title id="title">Post-phishing response</title>
  <desc id="desc">A clock points to ordered containment and evidence-preservation actions</desc>
  <defs>
    <linearGradient id="bg" x1="0" y1="0" x2="1" y2="1"><stop stop-color="#05090d"/><stop offset="1" stop-color="#0b1820"/></linearGradient>
    <pattern id="grid" width="64" height="64" patternUnits="userSpaceOnUse"><path d="M64 0H0V64" fill="none" stroke="#25414d" stroke-width="1" opacity=".28"/></pattern>
    <filter id="glow"><feGaussianBlur stdDeviation="8" result="b"/><feMerge><feMergeNode in="b"/><feMergeNode in="SourceGraphic"/></feMerge></filter>
    <marker id="arrow" viewBox="0 0 12 12" refX="10" refY="6" markerWidth="10" markerHeight="10" orient="auto"><path d="M0 0 12 6 0 12Z" fill="#43d3e8"/></marker>
    <style>
      .sans{font-family:Inter,Arial,sans-serif}.mono{font-family:'IBM Plex Mono',Consolas,monospace}
      .title{font:700 52px Inter,Arial,sans-serif;fill:#f4f8fa;letter-spacing:-1.5px}
      .subtitle{font:400 25px Inter,Arial,sans-serif;fill:#89a2af}
      .eyebrow{font:600 18px 'IBM Plex Mono',Consolas,monospace;fill:#43d3e8;letter-spacing:3px}
      .node-title{font:700 28px Inter,Arial,sans-serif;fill:#f4f8fa}
      .node-copy{font:400 20px Inter,Arial,sans-serif;fill:#89a2af}
      .node-code{font:600 18px 'IBM Plex Mono',Consolas,monospace;fill:#43d3e8}
      .note{font:500 19px Inter,Arial,sans-serif;fill:#89a2af}
    </style>
  </defs>
  <rect width="1600" height="900" fill="url(#bg)"/>
  <rect width="1600" height="900" fill="url(#grid)" opacity=".5"/>
  <path d="M0 8H1600" stroke="#43d3e8" stroke-width="8"/>
  <text x="72" y="62" class="eyebrow">HECAVEX / EDITORIAL RESEARCH VISUAL</text>
  <g transform="translate(170 210)"><circle cx="300" cy="240" r="220" fill="#0d1b24" stroke="#ffc857" stroke-width="12"/><path d="M300 90V240L406 310" fill="none" stroke="#ffc857" stroke-width="18" stroke-linecap="round"/></g><path d="M730 450H930" stroke="#43d3e8" stroke-width="12" marker-end="url(#arrow)"/><g transform="translate(980 180)"><path d="M220 0 420 96v206c0 148-100 248-200 300C120 550 20 450 20 302V96Z" fill="#0d1b24" stroke="#9fdf65" stroke-width="12"/><path d="m126 294 70 72 126-154" fill="none" stroke="#9fdf65" stroke-width="24" stroke-linecap="round" stroke-linejoin="round"/></g>
</svg>