<svg xmlns="http://www.w3.org/2000/svg" width="1600" height="900" viewBox="0 0 1600 900" role="img" aria-labelledby="title desc">
  <title id="title">Phishing-infrastructure baseline</title>
  <desc id="desc">A coverage-aware radar view separates observed signals from collection gaps</desc>
  <defs>
    <marker id="arrow" viewBox="0 0 12 12" refX="10" refY="6" markerWidth="10" markerHeight="10" orient="auto"><path d="M0 0 12 6 0 12Z" fill="#55b9b1"/></marker>
    <style>
      .sans{font-family:Inter,Arial,sans-serif}.mono{font-family:'IBM Plex Mono',Consolas,monospace}
      .title{font:700 52px Inter,Arial,sans-serif;fill:#151719;letter-spacing:-1.5px}
      .subtitle{font:400 25px Inter,Arial,sans-serif;fill:#30383b}
      .eyebrow{font:600 18px 'IBM Plex Mono',Consolas,monospace;fill:#151719;letter-spacing:3px}
      .node-title{font:700 28px Inter,Arial,sans-serif;fill:#151719}
      .node-copy{font:400 20px Inter,Arial,sans-serif;fill:#30383b}
      .node-code{font:600 18px 'IBM Plex Mono',Consolas,monospace;fill:#151719}
      .note{font:500 19px Inter,Arial,sans-serif;fill:#30383b}
    </style>
  </defs>
  <rect width="1600" height="900" fill="#ece9e1"/>
  <path d="M0 8H1600" stroke="#55b9b1" stroke-width="8"/>
  <text x="72" y="62" class="eyebrow">HECAVEX / EDITORIAL RESEARCH VISUAL</text>
  <circle cx="800" cy="450" r="320" fill="none" stroke="#30383b" stroke-width="3"/><circle cx="800" cy="450" r="220" fill="none" stroke="#30383b" stroke-width="2" stroke-dasharray="14 18"/><path d="M800 450 1070 270A320 320 0 0 1 1120 450Z" fill="#55b9b1" opacity=".14"/><path d="M800 450 1070 270" stroke="#55b9b1" stroke-width="12"/><circle cx="982" cy="330" r="22" fill="#86b77e"/><circle cx="622" cy="296" r="18" fill="#d2aa62"/><circle cx="544" cy="512" r="14" fill="#d06c65"/><circle cx="882" cy="644" r="20" fill="#55b9b1"/><circle cx="800" cy="450" r="30" fill="#151719"/><path d="M240 730H1360" stroke="#30383b" stroke-width="4"/><path d="M240 730H944" stroke="#55b9b1" stroke-width="14"/><path d="M1010 730H1360" stroke="#30383b" stroke-width="14" stroke-dasharray="20 18"/>
</svg>