<svg xmlns="http://www.w3.org/2000/svg" width="1600" height="900" viewBox="0 0 1600 900" role="img" aria-labelledby="title desc">
  <title id="title">Forced-authentication detection</title>
  <desc id="desc">A crafted document can trigger an authentication path that defenders must observe</desc>
  <defs>
    <marker id="arrow" viewBox="0 0 12 12" refX="10" refY="6" markerWidth="10" markerHeight="10" orient="auto"><path d="M0 0 12 6 0 12Z" fill="#55b9b1"/></marker>
    <style>
      .sans{font-family:Inter,Arial,sans-serif}.mono{font-family:'IBM Plex Mono',Consolas,monospace}
      .title{font:700 52px Inter,Arial,sans-serif;fill:#ece9e1;letter-spacing:-1.5px}
      .subtitle{font:400 25px Inter,Arial,sans-serif;fill:#8d969a}
      .eyebrow{font:600 18px 'IBM Plex Mono',Consolas,monospace;fill:#55b9b1;letter-spacing:3px}
      .node-title{font:700 28px Inter,Arial,sans-serif;fill:#ece9e1}
      .node-copy{font:400 20px Inter,Arial,sans-serif;fill:#8d969a}
      .node-code{font:600 18px 'IBM Plex Mono',Consolas,monospace;fill:#55b9b1}
      .note{font:500 19px Inter,Arial,sans-serif;fill:#8d969a}
    </style>
  </defs>
  <rect width="1600" height="900" fill="#111416"/>
  <path d="M0 8H1600" stroke="#55b9b1" stroke-width="8"/>
  <text x="72" y="62" class="eyebrow">HECAVEX / EDITORIAL RESEARCH VISUAL</text>
  <g transform="translate(160 210)"><path d="M0 0H360L500 140V520H0Z" fill="#1d2326" stroke="#d2aa62" stroke-width="10"/><path d="M360 0V140H500" fill="none" stroke="#d2aa62" stroke-width="10"/><path d="M80 240H410M80 320H350" stroke="#ece9e1" stroke-width="20" stroke-linecap="round"/></g><path d="M720 450H940" stroke="#55b9b1" stroke-width="12" marker-end="url(#arrow)"/><path d="M760 500c54 0 54 82 108 82s54-164 108-164 54 164 108 164 54-82 108-82" fill="none" stroke="#55b9b1" stroke-width="10"/><g transform="translate(1090 210)"><path d="M220 0 420 96v206c0 148-100 248-200 300C120 550 20 450 20 302V96Z" fill="#1d2326" stroke="#d06c65" stroke-width="12"/><path d="M142 226H298M142 300H298" stroke="#d06c65" stroke-width="20" stroke-linecap="round"/></g>
</svg>