<svg xmlns="http://www.w3.org/2000/svg" viewBox="0 0 1200 630" role="img" aria-labelledby="title desc">
  <title id="title">Analytical confidence field</title><desc id="desc">Evidence points form calibrated low, moderate and high confidence bands.</desc>
  <rect width="1200" height="630" fill="#ECE9E1"/>
  <path d="M110 510H1090M110 510V92" fill="none" stroke="#30383B" stroke-width="4"/>
  <g opacity=".75"><rect x="112" y="384" width="976" height="124" fill="#8D969A" opacity=".18"/><rect x="112" y="244" width="976" height="140" fill="#D2AA62" opacity=".13"/><rect x="112" y="94" width="976" height="150" fill="#55B9B1" opacity=".13"/></g>
  <path d="M140 450C260 438 310 385 398 401s132-132 229-96 125-142 219-101 135-55 224-73" fill="none" stroke="#55B9B1" stroke-width="9"/>
  <g fill="#ECE9E1" stroke="#55B9B1" stroke-width="6"><circle cx="140" cy="450" r="14"/><circle cx="398" cy="401" r="14"/><circle cx="627" cy="305" r="14"/><circle cx="846" cy="204" r="14"/><circle cx="1070" cy="131" r="14"/></g>
  <g fill="#151719"><circle cx="292" cy="350" r="8"/><circle cx="520" cy="292" r="8"/><circle cx="738" cy="227" r="8"/><circle cx="958" cy="151" r="8"/></g>
</svg>
